# xmcd CD database file
#
# Track frame offsets:
#	150
#	19180
#	35597
#	57060
#	71305
#	90262
#	90712
#	105032
#	120265
#	135700
#	152895
#	171620
#
# Disc length: 2456 seconds
#
# Revision: 7
# Processed by: cddbd v1.5PL3 Copyright (c) Steve Scherf et al.
# Submitted via: CDex 1.50beta9
#
DISCID=8c09960c
DTITLE=John Lennon - Mind Games
DYEAR=1973
DGENRE=Rock
TTITLE0=Mind Games
TTITLE1=Tight A$
TTITLE2=Aisumasen (I'm Sorry)
TTITLE3=One Day (At a Time)
TTITLE4=Bring on the Lucie (Freda Peeple)
TTITLE5=Nutopian International Anthem
TTITLE6=Intuition
TTITLE7=Out the Blue
TTITLE8=Only People
TTITLE9=I Know (I Know)
TTITLE10=You Are Here
TTITLE11=Meat City
EXTD=YEAR: 1973
EXTT0=
EXTT1=
EXTT2=
EXTT3=
EXTT4=
EXTT5=
EXTT6=
EXTT7=
EXTT8=
EXTT9=
EXTT10=
EXTT11=
PLAYORDER=
